<?xml version="1.0" standalone="no"?>
<!DOCTYPE svg PUBLIC "-//W3C//DTD SVG 20010904//EN"
 "http://www.w3.org/TR/2001/REC-SVG-20010904/DTD/svg10.dtd">
<svg version="1.0" xmlns="http://www.w3.org/2000/svg"
 width="512.000000pt" height="512.000000pt" viewBox="0 0 512.000000 512.000000"
 preserveAspectRatio="xMidYMid meet">

<g transform="translate(0.000000,512.000000) scale(0.100000,-0.100000)"
fill="#000000" stroke="none">
<path d="M1636 4751 c-65 -43 -66 -46 -66 -363 l0 -288 145 0 146 0 -3 296 -3
295 -42 40 c-38 35 -47 39 -95 39 -35 0 -63 -7 -82 -19z"/>
<path d="M2199 4747 c-66 -44 -69 -59 -69 -370 l0 -278 148 3 147 3 3 268 c2
248 1 272 -17 312 -36 82 -138 112 -212 62z"/>
<path d="M2766 4751 c-65 -43 -66 -46 -66 -363 l0 -288 145 0 145 0 0 280 c0
308 -1 314 -60 364 -40 33 -119 36 -164 7z"/>
<path d="M3329 4747 c-66 -44 -69 -59 -69 -369 l0 -278 150 0 150 0 0 273 c0
247 -2 276 -20 314 -36 80 -138 109 -211 60z"/>
<path d="M1443 3956 c-103 -33 -185 -106 -232 -205 l-26 -56 0 -1110 0 -1110
28 -57 c36 -74 128 -159 204 -190 l58 -23 1050 -3 c758 -2 1067 0 1110 8 159
31 274 146 305 305 8 43 10 352 8 1110 l-3 1050 -23 57 c-33 81 -108 160 -190
200 l-67 33 -1090 2 c-882 1 -1098 -1 -1132 -11z m1214 -316 c12 -30 22 -40
39 -40 12 0 29 -2 36 -5 9 -4 20 7 31 30 19 41 40 44 96 16 58 -30 65 -43 45
-85 -17 -35 -17 -36 6 -61 21 -22 29 -25 67 -19 42 6 43 6 59 -32 9 -21 18
-52 21 -69 5 -30 2 -33 -36 -48 -38 -16 -41 -20 -41 -55 0 -34 4 -40 35 -55
19 -9 35 -21 35 -27 0 -21 -51 -111 -66 -117 -9 -3 -30 1 -48 9 -30 15 -33 14
-60 -7 -27 -22 -28 -24 -16 -60 15 -46 6 -57 -65 -78 -62 -17 -71 -14 -85 28
-10 31 -31 45 -70 45 -9 0 -24 -16 -34 -35 -11 -19 -25 -35 -33 -35 -22 0
-113 49 -119 65 -3 7 2 27 11 44 15 30 14 33 -7 61 -14 20 -28 28 -38 25 -8
-4 -27 -9 -42 -12 -25 -5 -30 -1 -44 33 -9 22 -17 54 -18 73 -1 30 3 35 34 46
31 10 35 16 38 52 3 36 0 41 -27 52 -42 18 -44 35 -15 92 29 59 45 67 88 47
30 -15 33 -14 60 9 27 23 28 27 18 61 -14 45 -5 56 58 76 66 21 70 20 87 -24z
m610 -538 c7 -4 19 -26 26 -47 13 -38 16 -40 60 -43 45 -3 47 -2 67 37 11 23
27 41 36 41 22 0 133 -62 139 -78 3 -7 -4 -31 -16 -54 l-21 -40 29 -32 c15
-17 28 -32 29 -34 0 -1 19 4 41 12 25 9 45 11 55 5 20 -11 61 -130 52 -152 -3
-8 -24 -22 -47 -29 -40 -13 -42 -15 -45 -58 -3 -44 -1 -47 33 -63 20 -9 38
-24 42 -33 8 -20 -46 -133 -69 -145 -13 -7 -30 -4 -59 12 l-42 21 -30 -31
c-29 -29 -30 -31 -18 -71 16 -53 8 -63 -75 -90 -75 -25 -87 -20 -105 40 -11
36 -14 38 -56 42 -43 3 -46 2 -64 -35 -11 -21 -26 -40 -33 -43 -18 -7 -135 52
-143 72 -3 8 2 33 12 55 18 39 18 39 -6 67 -13 15 -26 30 -29 34 -3 4 -23 1
-45 -6 -25 -9 -46 -11 -56 -5 -19 10 -55 130 -46 153 3 8 24 20 46 27 35 10
41 16 41 40 0 15 3 34 6 42 4 11 -7 23 -35 39 -22 13 -43 29 -46 36 -6 15 46
122 68 141 13 10 23 8 56 -9 l41 -21 35 28 c27 21 33 32 28 48 -4 11 -7 35 -8
54 0 33 2 35 65 57 77 27 72 26 87 16z m-1018 -38 c80 -6 98 -10 118 -30 23
-23 24 -39 8 -144 -3 -22 5 -29 67 -62 l71 -37 51 43 c28 24 58 45 66 48 29
10 59 -12 131 -98 101 -121 101 -123 -24 -225 -19 -15 -19 -18 -4 -65 8 -27
18 -61 21 -75 5 -24 10 -27 78 -33 110 -10 114 -16 102 -165 -13 -159 -19
-166 -126 -156 l-77 6 -33 -63 c-18 -35 -34 -66 -36 -69 -1 -3 18 -31 43 -61
46 -56 56 -91 33 -120 -31 -39 -180 -148 -203 -148 -16 0 -39 18 -75 59 l-51
59 -72 -23 -72 -23 -11 -78 c-14 -98 -25 -108 -114 -99 -214 20 -215 20 -206
134 l6 76 -68 36 -68 36 -58 -49 c-65 -54 -84 -58 -120 -25 -51 45 -146 172
-146 195 0 24 18 45 82 98 l38 30 -20 57 c-11 31 -20 63 -20 71 0 18 -22 26
-75 26 -55 0 -91 13 -104 39 -10 18 -1 182 14 247 7 31 43 42 123 36 42 -3 72
-1 72 5 0 5 16 35 35 67 l34 58 -49 59 c-54 65 -60 86 -32 116 20 23 126 112
162 136 45 31 66 20 147 -81 l18 -23 70 22 c39 12 72 24 74 26 3 2 8 36 13 76
8 79 32 113 72 103 12 -2 63 -8 115 -12z"/>
<path d="M2625 3446 c-98 -44 -125 -178 -51 -252 100 -100 266 -30 266 112 0
45 -28 94 -71 127 -34 25 -105 31 -144 13z"/>
<path d="M3305 2845 c-5 -2 -22 -6 -37 -9 -34 -8 -94 -59 -114 -97 -17 -33
-19 -121 -3 -152 69 -134 239 -148 324 -28 25 35 30 52 30 101 0 49 -5 66 -30
101 -17 23 -46 50 -65 60 -37 18 -88 30 -105 24z"/>
<path d="M2070 2601 c-85 -26 -163 -94 -202 -176 -22 -48 -28 -74 -28 -131 0
-104 22 -158 94 -230 73 -72 126 -94 231 -94 60 0 82 5 133 30 69 35 125 92
156 159 16 35 21 66 21 131 0 79 -3 90 -36 150 -40 73 -106 130 -178 155 -47
16 -148 19 -191 6z"/>
<path d="M453 3564 c-95 -47 -99 -194 -7 -255 27 -17 52 -19 317 -19 l287 0 0
145 0 145 -282 0 c-239 0 -288 -3 -315 -16z"/>
<path d="M4080 3435 l0 -145 280 0 c314 0 320 1 365 67 47 70 21 169 -55 208
-24 12 -79 15 -310 15 l-280 0 0 -145z"/>
<path d="M474 3009 c-18 -5 -46 -25 -63 -44 -27 -31 -31 -43 -31 -95 0 -49 4
-64 27 -91 48 -56 65 -59 368 -59 l275 0 0 150 0 150 -272 -1 c-150 0 -287 -5
-304 -10z"/>
<path d="M4080 2870 l0 -151 284 3 c271 3 286 4 313 24 43 32 73 82 73 124 0
42 -30 92 -73 124 -27 20 -42 21 -313 24 l-284 3 0 -151z"/>
<path d="M453 2434 c-98 -49 -97 -211 1 -258 29 -14 78 -16 315 -16 l281 0 0
145 0 145 -282 0 c-239 0 -288 -3 -315 -16z"/>
<path d="M4080 2305 l0 -145 280 0 c314 0 320 1 365 67 47 70 21 169 -55 208
-24 12 -79 15 -310 15 l-280 0 0 -145z"/>
<path d="M465 1876 c-17 -7 -43 -28 -58 -45 -23 -27 -27 -42 -27 -91 0 -52 4
-64 31 -94 17 -20 47 -40 67 -46 21 -5 154 -10 305 -10 l267 0 0 150 0 150
-277 0 c-209 -1 -286 -4 -308 -14z"/>
<path d="M4080 1740 l0 -151 284 3 c271 3 286 4 313 24 43 32 73 82 73 124 0
42 -30 92 -73 124 -27 20 -42 21 -313 24 l-284 3 0 -151z"/>
<path d="M1570 788 c0 -265 1 -285 20 -316 44 -72 134 -93 203 -47 66 45 67
51 67 365 l0 280 -145 0 -145 0 0 -282z"/>
<path d="M2130 794 c0 -263 1 -278 21 -314 25 -45 83 -80 131 -80 39 0 91 31
122 73 20 27 21 42 24 313 l3 284 -150 0 -151 0 0 -276z"/>
<path d="M2700 788 c0 -265 1 -285 20 -316 44 -72 134 -93 203 -47 66 45 67
51 67 365 l0 280 -145 0 -145 0 0 -282z"/>
<path d="M3260 795 c0 -314 3 -331 78 -373 71 -40 143 -21 196 51 20 27 21 42
24 313 l3 284 -150 0 -151 0 0 -275z"/>
</g>
</svg>
