<?xml version="1.0" standalone="no"?>
<!DOCTYPE svg PUBLIC "-//W3C//DTD SVG 20010904//EN"
 "http://www.w3.org/TR/2001/REC-SVG-20010904/DTD/svg10.dtd">
<svg version="1.0" xmlns="http://www.w3.org/2000/svg"
 width="512.000000pt" height="512.000000pt" viewBox="0 0 512.000000 512.000000"
 preserveAspectRatio="xMidYMid meet">

<g transform="translate(0.000000,512.000000) scale(0.100000,-0.100000)"
fill="#000000" stroke="none">
<path d="M101 4623 c-39 -8 -73 -34 -87 -70 -12 -27 -14 -320 -14 -1734 0
-1491 2 -1705 15 -1733 31 -65 -33 -61 1000 -66 l940 -5 3 -147 3 -146 -150
-4 c-168 -3 -194 -13 -219 -80 -12 -30 -11 -40 1 -71 9 -19 28 -44 43 -54 27
-17 74 -18 955 -18 l928 0 28 21 c15 12 34 37 41 56 12 30 11 40 -1 71 -27 63
-52 72 -217 75 l-145 4 3 149 3 149 895 0 c993 0 946 -3 978 65 14 30 16 206
16 1735 0 1869 4 1745 -58 1787 -26 17 -131 18 -2482 19 -1350 1 -2466 -1
-2479 -3z m4602 -297 c18 -7 42 -26 52 -42 20 -28 20 -58 23 -1304 2 -701 0
-1295 -3 -1319 -5 -32 -16 -54 -40 -78 l-33 -33 -2140 0 -2140 0 -31 26 c-17
14 -35 42 -41 62 -8 26 -10 435 -8 1327 3 1260 3 1291 23 1319 39 59 -101 55
2193 56 1762 0 2118 -2 2145 -14z"/>
</g>
</svg>
